<svg width="20" height="20" viewBox="0 0 24 24" fill="current" xmlns="http://www.w3.org/2000/svg"><g opacity=".8" fill="#929EAE" stroke="#929EAE" stroke-width=".5"><path d="M11.394 12.189h1.588v1.588a.275.275 0 1 0 .55 0V12.19h1.589a.275.275 0 1 0 0-.55h-1.588V10.05a.275.275 0 1 0-.55 0v1.589h-1.589a.275.275 0 1 0 0 .55Z"/><path d="M13.151 17.079a.273.273 0 0 0 .212 0c.201-.084 4.926-2.1 5.79-5.977.516-2.32-.742-3.97-2.13-4.52-1.383-.551-2.822-.071-3.765 1.218-.944-1.29-2.384-1.768-3.767-1.218-1.387.55-2.645 2.2-2.128 4.52.862 3.877 5.587 5.893 5.788 5.977ZM9.693 7.092c.288-.114.611-.183.947-.183.815 0 1.71.403 2.381 1.53.099.166.373.166.472 0 .949-1.591 2.341-1.738 3.328-1.347 1.177.468 2.24 1.885 1.795 3.89-.733 3.291-4.66 5.222-5.358 5.542-.7-.32-4.626-2.251-5.359-5.542-.447-2.005.617-3.422 1.794-3.89Z"/><path d="M22.725 2.972h-1.797V1.275A.275.275 0 0 0 20.653 1H1.275A.275.275 0 0 0 1 1.275v14.821c0 .152.123.275.275.275h1.916v3.076c0 .152.123.275.275.275h2.71l3.134 3.195a.276.276 0 0 0 .393 0l3.133-3.195h9.889a.275.275 0 0 0 .275-.275v-16.2a.275.275 0 0 0-.275-.275ZM1.55 15.822V1.55h18.828v1.422H3.466a.275.275 0 0 0-.275.275v12.575H1.55Zm20.9 3.35h-9.729a.275.275 0 0 0-.196.083l-3.018 3.077-3.018-3.077a.275.275 0 0 0-.197-.083H3.741V3.522H22.45v15.65Z"/></g></svg>