<svg width="20" height="20" viewBox="0 0 20 20" fill="current" xmlns="http://www.w3.org/2000/svg">
<path d="M13.15 1.66669H6.85C3.7 1.66669 2.91666 2.50835 2.91666 5.86669V15.25C2.91666 17.4667 4.13333 17.9917 5.60833 16.4084L5.61666 16.4C6.3 15.675 7.34167 15.7334 7.93333 16.525L8.775 17.65C9.45 18.5417 10.5417 18.5417 11.2167 17.65L12.0583 16.525C12.6583 15.725 13.7 15.6667 14.3833 16.4C15.8667 17.9834 17.075 17.4584 17.075 15.2417V5.86669C17.0833 2.50835 16.3 1.66669 13.15 1.66669ZM12.2917 8.95835H7.70833C7.36666 8.95835 7.08333 8.67502 7.08333 8.33335C7.08333 7.99169 7.36666 7.70835 7.70833 7.70835H12.2917C12.6333 7.70835 12.9167 7.99169 12.9167 8.33335C12.9167 8.67502 12.6333 8.95835 12.2917 8.95835Z" />
</svg>
