<svg width="20" height="20" viewBox="0 0 20 20" fill="current" xmlns="http://www.w3.org/2000/svg">
<path d="M6.56524 10.0583C6.56524 9.71666 6.84857 9.43332 7.19024 9.43332H11.7569V2.38332C11.7486 1.98332 11.4319 1.66666 11.0319 1.66666C6.12357 1.66666 2.69857 5.09166 2.69857 9.99999C2.69857 14.9083 6.12357 18.3333 11.0319 18.3333C11.4236 18.3333 11.7486 18.0167 11.7486 17.6167V10.675H7.19024C6.84024 10.6833 6.56524 10.4 6.56524 10.0583Z" />
<path d="M17.118 9.61683L14.7513 7.2418C14.5097 7.00013 14.1097 7.00013 13.868 7.2418C13.6263 7.48346 13.6263 7.88346 13.868 8.12513L15.168 9.42516H11.7513V10.6752H15.1597L13.8597 11.9752C13.618 12.2168 13.618 12.6168 13.8597 12.8585C13.9847 12.9835 14.143 13.0418 14.3013 13.0418C14.4597 13.0418 14.618 12.9835 14.743 12.8585L17.1097 10.4835C17.3597 10.2502 17.3597 9.8585 17.118 9.61683Z" />
</svg>
